<?xml version="1.0" encoding="UTF-8"?>
<svg id="Layer_2" data-name="Layer 2" xmlns="http://www.w3.org/2000/svg" viewBox="0 0 43.24 40">
  <g id="Layer_1-2" data-name="Layer 1">
    <path d="M41.16,28.66c-.05-.19-.21-.32-.41-.32h-11.06c-.38,0-.56-.46-.29-.72l5.05-4.89c.14-.13.17-.34.07-.51L21.81.21c-.14-.24-.46-.28-.65-.09l-6.14,5.93c-.14.13-.17.34-.07.51l5.53,9.57c.19.33-.12.71-.48.61l-6.76-1.93c-.18-.05-.38.03-.48.19L.06,37.03c-.14.24-.01.54.25.61l8.21,2.35c.18.05.38-.03.48-.19l5.53-9.57c.19-.33.68-.26.77.11l1.71,6.82c.05.19.21.32.41.32h25.43c.27,0,.47-.26.41-.52l-2.07-8.28ZM26.81,28.35h-10.49c-.32,0-.52-.35-.36-.63l5.25-9.09c.16-.28.56-.28.72,0l5.25,9.09c.16.28-.04.63-.36.63Z"/>
  </g>
</svg>